<svg id="Layer_1" data-name="Layer 1" xmlns="http://www.w3.org/2000/svg" viewBox="0 0 26 37"><defs><style>.cls-1{fill:#edede9;}</style></defs><path id="i-2181" class="cls-1" d="M28.91,8.29C26.07,7.56,25,7.12,25,5.5H23l0,27.6a6.88,6.88,0,0,0-3-.6c-4.25,0-8.86,2.4-9,6a3.57,3.57,0,0,0,1,2.65,5.48,5.48,0,0,0,4,1.38h.09A12.12,12.12,0,0,0,21.86,41c2-1.14,3.14-2.74,3.14-4.51,0-.13,0-.27,0-.42V15.93A12.65,12.65,0,0,0,27.93,17c2.52.7,4.07,1.24,4.07,3.5,0,2.73-1.88,6.52-1.9,6.55l1.7,1.05,1.12-1.47C35.29,23.54,37,21.31,37,17.5,37,10.4,32.32,9.18,28.91,8.29ZM16.06,40.5a3.82,3.82,0,0,1-2.65-.77,1.58,1.58,0,0,1-.41-1.2c.06-2.31,3.73-4,7-4,2.43,0,2.89.9,3,1.57v.43h0c0,1.37-1.33,2.33-2.12,2.77a10.27,10.27,0,0,1-4.82,1.23Zm12.4-25.42C26,14.4,25,14,25,12.5h0V9a13.66,13.66,0,0,0,3.41,1.21C31.8,11.11,35,12,35,17.5a8.33,8.33,0,0,1-1.09,4.22A8.45,8.45,0,0,0,34,20.5C34,16.6,30.8,15.72,28.46,15.08Z" transform="translate(-11 -5.5)"/></svg>