<svg xmlns="http://www.w3.org/2000/svg" version="1.1" xmlns:xlink="http://www.w3.org/1999/xlink" xmlns:svgjs="http://svgjs.dev/svgjs" viewBox="0 0 1920 1080" style="overflow: hidden; height: 85vh;" class="overflow-hidden rounded-md drop-shadow-lg transition duration-300"><rect width="1920" height="1080" fill="#6b9080"/><g clip-path="url(&quot;#SvgjsClipPath1598&quot;)"><g transform="matrix(0.9420248509323405,0.6596129018037029,-0.6596129018037029,0.9420248509323405,410.8295677460836,-590.3447060522544)"><path d="M0,-1080C4.6754859330115535,-991.4911914471452,33.30363262498852,-728.2459193242152,28.05291559806932,-548.9471486828709C22.802198571150115,-369.6483780415266,-22.322872053934674,-179.7138918929832,-31.504302161515234,-4.207376151934156C-40.685732269095794,171.29913958911487,-29.717595508140757,314.51137287157246,-27.035665047414025,504.09194576342327C-24.353734586687292,693.6725186552741,-28.973851577643615,956.4644517463286,-15.41271939715483,1133.2760611991707C-1.851587216666049,1310.0876706520128,51.76234146932619,1393.840946013671,54.33112803551866,1564.961602480476C56.89991460171113,1736.0822589472807,9.055188005919776,2060.826933746746,0,2160L 1920 2160 L 1920 -1080 Z" fill="url(&quot;#SvgjsLinearGradient1593&quot;)"/><path d="M384,-1080C382.2540658178545,-948.7040765514824,379.92555057812484,-562.3649566624877,373.524394907127,-292.2244593088946C367.1232392361291,-22.083961955301618,338.6453937155239,267.1811639568213,345.59306597401275,540.842984121558C352.5407382325016,814.5048042862945,408.80927278706235,1079.886959033118,415.2104284580602,1349.746461679525C421.6115841290581,1619.605964325932,389.20173807634336,2024.9577436132543,384,2160L 1920 2160 L 1920 -1080 Z" fill="url(&quot;#SvgjsLinearGradient1594&quot;)"/><path d="M768,-1080C764.5679647743657,-940.9700599209647,738.8630998173082,-519.5991805902082,747.4077886461945,-245.82035952578795C755.9524774750807,27.958461538632292,814.5729979208719,287.2670655017165,819.2681329733175,562.6729263865213C823.9632680257631,838.0787872713262,784.1232877897545,1140.3936268474613,775.5785989608682,1406.614805783041C767.033910131982,1672.8359847186207,769.2630998268114,2034.4358009638402,768,2160L 1920 2160 L 1920 -1080 Z" fill="url(&quot;#SvgjsLinearGradient1595&quot;)"/><path d="M1152,-1080C1143.3562564047122,-976.1671629356658,1107.7810027688884,-681.3792625632911,1100.1375384282735,-457.0029776139953C1092.4940740876586,-232.62669266469948,1093.4904479637744,46.76617756092804,1106.1392139563104,266.2577096957751C1118.7879799488464,485.7492418306221,1173.3735687039962,650.2005628422381,1176.0301343834901,859.9462151950869C1178.686700062984,1069.6918675479358,1126.0836304305221,1308.055993012049,1122.0786080332737,1524.7316238128678C1118.0735856360252,1741.4072546136867,1147.0131013388789,2054.1219373021445,1152,2160L 1920 2160 L 1920 -1080 Z" fill="url(&quot;#SvgjsLinearGradient1596&quot;)"/><path d="M1536,-1080C1532.2864922704634,-1002.7745134683496,1508.8137908073682,-762.250582640503,1513.7189536227806,-616.6470808100979C1518.6241164381931,-471.0435789796928,1568.8552413420757,-363.4841696808619,1565.4309768924745,-206.37898901756938C1562.0067124428733,-49.273808354276895,1505.7339273255639,154.68644674123655,1493.173366925174,325.98400316965694C1480.612806524784,497.28155959807737,1476.3494256273643,664.6874289209359,1490.0676144901342,821.4063495529529C1503.7858033529042,978.1252701849698,1560.0278710707807,1114.0790718936469,1575.482500101793,1266.297526961759C1590.9371291328052,1418.5159820298713,1589.37580535984,1585.7666677885866,1582.7953886762077,1734.7170799616267C1576.2149719925756,1883.6674921346669,1543.7992314460346,2089.119513326938,1536,2160L 1920 2160 L 1920 -1080 Z" fill="url(&quot;#SvgjsLinearGradient1597&quot;)"/></g></g><defs><linearGradient x1="0.1" y1="0" x2="0" y2="1" id="SvgjsLinearGradient1593"><stop stop-color="#6b9080" offset="0"/><stop stop-color="#6b907a" offset="0"/></linearGradient><linearGradient x1="0.1" y1="0" x2="0" y2="1" id="SvgjsLinearGradient1594"><stop stop-color="#87a698" offset="0"/><stop stop-color="#87a693" offset="0.2"/></linearGradient><linearGradient x1="0.1" y1="0" x2="0" y2="1" id="SvgjsLinearGradient1595"><stop stop-color="#a3bbb1" offset="0"/><stop stop-color="#a3bbad" offset="0.4"/></linearGradient><linearGradient x1="0.1" y1="0" x2="0" y2="1" id="SvgjsLinearGradient1596"><stop stop-color="#c0d0c9" offset="0"/><stop stop-color="#c0d0c6" offset="0.6"/></linearGradient><linearGradient x1="0.1" y1="0" x2="0" y2="1" id="SvgjsLinearGradient1597"><stop stop-color="#dce5e1" offset="0"/><stop stop-color="#dce5df" offset="0.8"/></linearGradient><clipPath id="SvgjsClipPath1598"><rect width="1920" height="1080"/></clipPath></defs></svg>