<svg id="Icons" xmlns="http://www.w3.org/2000/svg" viewBox="0 0 30 30"><defs><style>.cls-1{fill:none;stroke:#6b705c;stroke-linecap:round;stroke-linejoin:round;stroke-width:2px;}</style></defs><path class="cls-1" d="M28,30H4a2,2,0,0,1-2-2V4A2,2,0,0,1,4,2H28a2,2,0,0,1,2,2V28A2,2,0,0,1,28,30Z" transform="translate(-1 -1)"/><line class="cls-1" x1="19" y1="1" x2="19" y2="29"/><polyline class="cls-1" points="26 23 24 25 22 23"/><polyline class="cls-1" points="22 7 24 5 26 7"/><line class="cls-1" x1="5" y1="8" x2="15" y2="8"/><line class="cls-1" x1="5" y1="12" x2="11" y2="12"/><line class="cls-1" x1="5" y1="16" x2="11" y2="16"/></svg>