<svg id="Layer_1" data-name="Layer 1" xmlns="http://www.w3.org/2000/svg" viewBox="0 0 60 60"><defs><style>.cls-1{fill:#e1cfbe;}</style></defs><path class="cls-1" d="M57,2H17a5,5,0,0,0-5,5V20H7a5,5,0,0,0-5,5V51a5,5,0,0,0,5,5H27.75l10.77,5.88A1.06,1.06,0,0,0,39,62a1,1,0,0,0,.49-.14A1,1,0,0,0,40,61V56h7a5,5,0,0,0,5-5V38h5a5,5,0,0,0,5-5V7a5,5,0,0,0-5-5ZM50,51a3,3,0,0,1-3,3H39a1,1,0,0,0-1,1v4.32l-9.52-5.2A1,1,0,0,0,28,54H7a3,3,0,0,1-3-3V25a3,3,0,0,1,3-3h5V33a5,5,0,0,0,5,5h7v5a1,1,0,0,0,.49.86A1,1,0,0,0,25,44a1.06,1.06,0,0,0,.5-.12L36.25,38H50ZM60,33a3,3,0,0,1-3,3H36a1,1,0,0,0-.48.12L26,41.32V37a1,1,0,0,0-1-1H17a3,3,0,0,1-3-3V7a3,3,0,0,1,3-3H57a3,3,0,0,1,3,3Z" transform="translate(-2 -2)"/><path class="cls-1" d="M24,7a1,1,0,0,0-1-1H19a3,3,0,0,0-3,3v4a1,1,0,1,0,2,0V9a1,1,0,0,1,1-1h4a1,1,0,0,0,1-1Z" transform="translate(-2 -2)"/><path class="cls-1" d="M57,26a1,1,0,0,0-1,1v4a1,1,0,0,1-1,1H51a1,1,0,1,0,0,2h4a3,3,0,0,0,3-3V27a1,1,0,0,0-1-1Z" transform="translate(-2 -2)"/><path class="cls-1" d="M13,50H9a1,1,0,0,1-1-1V45a1,1,0,1,0-2,0v4a3,3,0,0,0,3,3h4a1,1,0,1,0,0-2Z" transform="translate(-2 -2)"/><path class="cls-1" d="M39,52h4a3,3,0,0,0,3-3V45a1,1,0,1,0-2,0v4a1,1,0,0,1-1,1H39a1,1,0,1,0,0,2Z" transform="translate(-2 -2)"/><path class="cls-1" d="M29,14a1,1,0,1,0,0-2H23a1,1,0,0,0-1,1V27a1,1,0,1,0,2,0V20h5a1,1,0,1,0,0-2H24V14Z" transform="translate(-2 -2)"/><path class="cls-1" d="M37,12.73A1,1,0,0,0,36,12H35a1,1,0,0,0-1,.73l-4,14a.86.86,0,0,0,0,.39,1,1,0,0,0,.11.38,1.07,1.07,0,0,0,.25.31,1.22,1.22,0,0,0,.36.18.86.86,0,0,0,.39,0,1.21,1.21,0,0,0,.38-.12,1,1,0,0,0,.3-.27,1,1,0,0,0,.17-.35L32.9,24h5.2L39,27.28A1,1,0,0,0,40,28a.9.9,0,0,0,.28,0,1,1,0,0,0,.59-.47,1,1,0,0,0,.09-.76ZM33.47,22l2-7.11,2,7.11Z" transform="translate(-2 -2)"/><path class="cls-1" d="M51.29,27.71A1,1,0,0,0,52,28a1,1,0,0,0,1-1,1,1,0,0,0-.28-.71l-.54-.54A5,5,0,0,0,53,23V17a5,5,0,1,0-10,0v6a5,5,0,0,0,7.75,4.17ZM48,26a3,3,0,0,1-3-3V17a3,3,0,0,1,6,0v6a2.91,2.91,0,0,1-.3,1.29l-1-1A1,1,0,0,0,49,23a1,1,0,0,0-.69.3A1,1,0,0,0,48,24a1,1,0,0,0,.28.71l1,1A2.88,2.88,0,0,1,48,26Z" transform="translate(-2 -2)"/></svg>