<svg id="Слой_1" data-name="Слой 1" xmlns="http://www.w3.org/2000/svg" viewBox="0 0 32 30.02"><defs><style>.cls-1{fill:#f3e8ec;fill-rule:evenodd;}</style></defs><g id="Shuffle"><path class="cls-1" d="M31.53,24.15l-4.81-4.87a1,1,0,0,0-1.43,0,1,1,0,0,0,0,1.43L28.53,24h-6l-3.77-4.72a1,1,0,0,0-1.43,1.43l4,5A1,1,0,0,0,22,26h6.56l-3.27,3.3a1,1,0,0,0,0,1.43,1,1,0,0,0,1.43,0l4.91-5A1,1,0,0,0,32,25,1,1,0,0,0,31.53,24.15Z" transform="translate(0 -0.98)"/><path class="cls-1" d="M1,8H8.52l3.76,4.7a1,1,0,1,0,1.43-1.43l-4-5A1,1,0,0,0,8.94,6H1A1,1,0,0,0,1,8Z" transform="translate(0 -0.98)"/><path class="cls-1" d="M22.52,8H28.6l-3.26,3.3a1,1,0,0,0,1.42,1.42l4.94-5a1,1,0,0,0,0-1.47l-4.9-4.95a1,1,0,0,0-1.42,0,1,1,0,0,0,0,1.42L28.57,6H22a.91.91,0,0,0-.78.29L8.44,24H1a1,1,0,0,0,0,2H9a1.14,1.14,0,0,0,.77-.32Z" transform="translate(0 -0.98)"/></g></svg>