<svg id="Layer_1" data-name="Layer 1" xmlns="http://www.w3.org/2000/svg" viewBox="0 0 145.27 251.99"><defs><style>.cls-1{fill:#d5bdaf;}</style></defs><path class="cls-1" d="M73.58,77.81A24.61,24.61,0,0,1,59.3,68.62L56,67.87l-.35-.06c-3.58-.77-12.45-1.33-22,8.44-.52-12.19-2.54-19.83-9.31-22.15-3.46-1.18-8.76-1.05-14.35,6.31a8,8,0,0,0,7.44,12.77c.46,5.86.38,14,.33,18.34,0,3.33-.06,6.21,0,8.44.08,2.62.31,9.61,7,11a7.79,7.79,0,0,0,1.58.15c2.24,0,6.06-.85,8.23-6.1a61.69,61.69,0,0,1,8.6-15.38l-8.36,37-16.58-9.24a12.25,12.25,0,0,0-17.45,15l18.8,50.37a12.25,12.25,0,0,0,23-8.57l-7.16-19.17,7.76,4.33a12.25,12.25,0,0,0,16.58-4.59l1,.24,16.82,34.83L55.86,234.38a12.25,12.25,0,1,0,22,10.71l24.29-50a12.24,12.24,0,0,0,0-10.68l-17-35.28,10.77-47.67c1,4,1.56,9.68,1.14,17.62-.4,7.53,5.18,9.31,6.3,9.58a8.67,8.67,0,0,0,2.13.28c5.18,0,7.82-5.11,8.89-7.18s2.23-4.58,3.64-7.61c1.8-3.89,5.25-11.32,8.18-16.41a8,8,0,0,0,12.21-8.33c-1.89-9.05-6.61-11.45-10.24-11.86-7.11-.83-12.22,5.2-17.92,16C105.82,80.62,97.57,77.32,94,76.48l-.34-.1-3.21-.72a24.74,24.74,0,0,1-16.88,2.15Z" transform="translate(0 0)"/><path class="cls-1" d="M94.72,49.6c-3-2.24-6.84-5-11.12-6.34S74.4,42,70.37,42c-4.4,0-7.73,0-9.65-1.46a22.5,22.5,0,1,0,40.82,12.76C99.55,53.14,97.48,51.63,94.72,49.6ZM75.41,69.72A16.49,16.49,0,0,1,63.45,59l27.38,6.19A16.51,16.51,0,0,1,75.41,69.72Z" transform="translate(0 0)"/><path class="cls-1" d="M130.71,33.79c-8.89-6.18-23.62-3.8-29.4-2.53a21.82,21.82,0,0,0-2.65-3.43c-.33-3.84.47-8.87,4.74-14.11,3.74-4.59,8.87-5.17,12.36-5.3a3.65,3.65,0,0,0,.82,2.84,3.7,3.7,0,0,0,.8.68,6.83,6.83,0,1,0,5.24-4.76,3.85,3.85,0,0,0-.43-.65,3.65,3.65,0,0,0-4.11-1,18.89,18.89,0,0,0-20.42-4c-9,3.72-16.85,14.39-20.57,20.19a22.54,22.54,0,0,0-4,1.47C69.69,19.4,58.16,7.84,46.67,8c-10.53.13-21,11-24.49,16.25a3.67,3.67,0,0,0-4,2.56,3.58,3.58,0,0,0-.14.77,6.84,6.84,0,1,0,6.69,2.33,3.49,3.49,0,0,0,.46-.95A3.61,3.61,0,0,0,24.88,26c4.88-1.93,13.51-5.69,21-3.82A29.48,29.48,0,0,1,62.76,33.54a21.29,21.29,0,0,0-1.13,2.92c-1.78,5.81,12.13,1.37,22.65,4.6s17.63,14.13,19.41,8.32a22.31,22.31,0,0,0,.82-4,29.52,29.52,0,0,1,18.87.59c7.24,2.65,12.28,10.61,15.23,14.94a3.52,3.52,0,0,0-2.08,3.27,6.83,6.83,0,1,0,6.84,1.83,2.9,2.9,0,0,0,.31-.72A3.64,3.64,0,0,0,141.85,61C141.93,54.75,139.35,39.81,130.71,33.79ZM119.29,12.54a4.71,4.71,0,0,1,1.52-2.34,4.89,4.89,0,0,1,6.81.57,4.84,4.84,0,1,1-8.33,1.77ZM24.13,35.66a4.84,4.84,0,1,1-5.66-6.12,4.9,4.9,0,0,1,2.46.08,4.79,4.79,0,0,1,2.32,1.57A4.84,4.84,0,0,1,24.13,35.66Zm117.8,31.81a4.74,4.74,0,1,1-2.07-1.31A4.71,4.71,0,0,1,141.93,67.47Z" transform="translate(0 0)"/></svg>