<?xml version="1.0" encoding="UTF-8" standalone="no"?> <svg id="Layer_1" data-name="Layer 1" xmlns="http://www.w3.org/2000/svg" viewBox="0 0 64 64"><circle cx="32" cy="43.5" r="3.5" style="fill:#ffd9a6"/><circle cx="44" cy="47" r="3" style="fill:#ffd9a6"/><circle cx="20" cy="47" r="3" style="fill:#ffd9a6"/><circle cx="11" cy="48.5" r="2.5" style="fill:#ffd9a6"/><circle cx="53" cy="48.5" r="2.5" style="fill:#ffd9a6"/><path d="M25,62V52a4,4,0,0,1,4-4h6a4,4,0,0,1,4,4V62Z" style="fill:#7cb2f8"/><path d="M39,61V54a3,3,0,0,1,3-3h4a3,3,0,0,1,3,3v7Z" style="fill:#6fa1de"/><path d="M15,61V54a3,3,0,0,1,3-3h4a3,3,0,0,1,3,3v7Z" style="fill:#6fa1de"/><path d="M7,60V54.4A2.4,2.4,0,0,1,9.4,52h3.2A2.4,2.4,0,0,1,15,54.4V60Z" style="fill:#628ec4"/><path d="M49,60V54.4A2.4,2.4,0,0,1,51.4,52h3.2A2.4,2.4,0,0,1,57,54.4V60Z" style="fill:#628ec4"/><path d="M46,28H35l-3,6-3-6H18a2,2,0,0,1-2-2V4a2,2,0,0,1,2-2H46a2,2,0,0,1,2,2V26A2,2,0,0,1,46,28Z" style="fill:#d3e3f8"/><path d="M39.745,8.334a4.11,4.11,0,0,0-6.061,0L32,10.122,30.316,8.334a4.11,4.11,0,0,0-6.061,0,4.756,4.756,0,0,0,0,6.438L32,23l7.745-8.228A4.756,4.756,0,0,0,39.745,8.334Z" style="fill:#606060"/><path d="M39.745,8.334a4.11,4.11,0,0,0-6.061,0L32,10.122,30.316,8.334a4.11,4.11,0,0,0-6.061,0,4.756,4.756,0,0,0,0,6.438L32,23l7.745-8.228A4.756,4.756,0,0,0,39.745,8.334Z" style="fill:#d98d8e"/><path d="M7,61h7a1,1,0,0,0,1,1h9a1,1,0,0,0,1,1H39a1,1,0,0,0,1-1h9a1,1,0,0,0,1-1h7a1,1,0,0,0,1-1V54.4a3.4,3.4,0,0,0-2.662-3.314,3.5,3.5,0,1,0-4.676,0,3.369,3.369,0,0,0-1.361.66,3.992,3.992,0,0,0-2.751-1.69,4,4,0,1,0-5.1,0,3.96,3.96,0,0,0-1.653.611A4.994,4.994,0,0,0,35,47h-.206a4.5,4.5,0,1,0-5.588,0H29a4.994,4.994,0,0,0-4.8,3.667,3.96,3.96,0,0,0-1.653-.611,4,4,0,1,0-5.1,0,3.992,3.992,0,0,0-2.751,1.69,3.369,3.369,0,0,0-1.361-.66,3.5,3.5,0,1,0-4.676,0A3.4,3.4,0,0,0,6,54.4V60A1,1,0,0,0,7,61ZM53,47a1.5,1.5,0,1,1-1.5,1.5A1.5,1.5,0,0,1,53,47Zm-3,7.4A1.4,1.4,0,0,1,51.4,53h3.2A1.4,1.4,0,0,1,56,54.4V59H50ZM44,45a2,2,0,1,1-2,2A2,2,0,0,1,44,45Zm-4,9a2,2,0,0,1,2-2h4a2,2,0,0,1,2,2v6H40ZM32,41a2.5,2.5,0,1,1-2.5,2.5A2.5,2.5,0,0,1,32,41ZM26,52a3,3,0,0,1,3-3h6a3,3,0,0,1,3,3v9H26Zm-6-7a2,2,0,1,1-2,2A2,2,0,0,1,20,45Zm-4,9a2,2,0,0,1,2-2h4a2,2,0,0,1,2,2v6H16Zm-5-7a1.5,1.5,0,1,1-1.5,1.5A1.5,1.5,0,0,1,11,47ZM8,54.4A1.4,1.4,0,0,1,9.4,53h3.2A1.4,1.4,0,0,1,14,54.4V59H8Z" style="fill:#404040"/><path d="M18,1a3,3,0,0,0-3,3V26a3,3,0,0,0,3,3H28.382l2.723,5.447a1,1,0,0,0,1.79,0L35.618,29H46a3,3,0,0,0,3-3V4a3,3,0,0,0-3-3ZM47,4V26a1,1,0,0,1-1,1H35a1,1,0,0,0-.9.553L32,31.764,29.9,27.553A1,1,0,0,0,29,27H18a1,1,0,0,1-1-1V4a1,1,0,0,1,1-1H46A1,1,0,0,1,47,4Z" style="fill:#404040"/><path d="M36.714,6a5.123,5.123,0,0,0-3.758,1.648L32,8.663l-.956-1.015a5.11,5.11,0,0,0-7.517,0,5.775,5.775,0,0,0,0,7.81l7.745,8.228a1,1,0,0,0,1.456,0l7.745-8.228a5.775,5.775,0,0,0,0-7.81A5.127,5.127,0,0,0,36.714,6Zm2.3,8.087L32,21.541l-7.017-7.454a3.748,3.748,0,0,1,0-5.068,3.111,3.111,0,0,1,4.605,0l1.684,1.789a1.031,1.031,0,0,0,1.456,0l1.684-1.789a3.182,3.182,0,0,1,4.605,0A3.748,3.748,0,0,1,39.017,14.087Z" style="fill:#404040"/></svg>