<svg id="Icons" xmlns="http://www.w3.org/2000/svg" viewBox="0 0 26 32"><defs><style>.cls-1{fill:none;stroke:#c9d4d6;stroke-linecap:round;stroke-linejoin:round;stroke-width:2px;}</style></defs><path class="cls-1" d="M26,15H6a2,2,0,0,1-2-2H4a2,2,0,0,1,2-2H26a2,2,0,0,1,2,2h0A2,2,0,0,1,26,15Z" transform="translate(-3 0)"/><polygon class="cls-1" points="21 31 5 31 3 15 23 15 21 31"/><line class="cls-1" x1="17" y1="15" x2="16" y2="31"/><line class="cls-1" x1="10" y1="31" x2="9" y2="15"/><path class="cls-1" d="M25.8,11a3.55,3.55,0,0,0,.2-1,3,3,0,0,0-2.2-2.9A3.59,3.59,0,0,0,24,6a3,3,0,0,0-3-3,2.79,2.79,0,0,0-2,.8,3,3,0,0,0-6,0A2.79,2.79,0,0,0,11,3,3,3,0,0,0,8,6a3.59,3.59,0,0,0,.2,1.1A3,3,0,0,0,6,10a3,3,0,0,0,.2,1" transform="translate(-3 0)"/></svg>