<svg id="Layer_1" data-name="Layer 1" xmlns="http://www.w3.org/2000/svg" viewBox="0 0 83.38 60.49"><defs><style>.cls-1{fill:#bd3620;}</style></defs><path class="cls-1" d="M81.88,0H14a1.5,1.5,0,0,0-1.5,1.5V9.73a1.5,1.5,0,0,0,3,0V3H80.38V40.78H74.19a1.5,1.5,0,0,0,0,3h7.69a1.5,1.5,0,0,0,1.5-1.5V1.5A1.5,1.5,0,0,0,81.88,0Z"/><path class="cls-1" d="M70.34,12.57H1.5A1.5,1.5,0,0,0,0,14.07V59a1.5,1.5,0,0,0,1.5,1.5H70.34a1.5,1.5,0,0,0,1.5-1.5V14.07A1.5,1.5,0,0,0,70.34,12.57Zm-1.5,3V47.05H57.65l-10-8.28a1.5,1.5,0,0,0-1.89,0L36.08,46.5,21.38,30.3a1.48,1.48,0,0,0-1.1-.49h0a1.48,1.48,0,0,0-1.1.49L3,48V15.57ZM3,57.49V52.41L20.27,33.54l14.54,16a1.5,1.5,0,0,0,2,.17l9.84-7.86,9.45,7.84a1.48,1.48,0,0,0,1,.35H68.84v7.44Z"/><path class="cls-1" d="M56.36,31.51a5.95,5.95,0,1,0-6-6A6,6,0,0,0,56.36,31.51Zm0-8.89a2.95,2.95,0,1,1-3,2.94A2.94,2.94,0,0,1,56.36,22.62Z"/></svg>