<svg id="Layer_1" data-name="Layer 1" xmlns="http://www.w3.org/2000/svg" viewBox="0 0 77.44 41.14"><defs><style>.cls-1{fill:#81b29a;}</style></defs><g id="Group_1737" data-name="Group 1737"><g id="Group_1728" data-name="Group 1728"><g id="Group_1727" data-name="Group 1727"><g id="Group_1726" data-name="Group 1726"><g id="Group_1725" data-name="Group 1725"><path id="Path_332" data-name="Path 332" class="cls-1" d="M63.4,25.07c-3.72,0-5.68-1.86-7.27-3.35S53.5,19.24,51,19.24s-3.62,1.1-5.1,2.48-3.54,3.35-7.26,3.35S33,23.21,31.4,21.72s-2.63-2.48-5.1-2.48-3.62,1.1-5.1,2.48-3.55,3.35-7.26,3.35-5.69-1.86-7.27-3.35S4,19.24,1.58,19.24a1.58,1.58,0,0,1,0-3.16c3.71,0,5.68,1.85,7.26,3.34s2.63,2.49,5.1,2.49,3.62-1.1,5.1-2.49,3.54-3.34,7.26-3.34,5.69,1.85,7.27,3.34,2.63,2.49,5.1,2.49,3.62-1.1,5.1-2.49,3.55-3.34,7.26-3.34,5.69,1.85,7.27,3.34,2.64,2.49,5.1,2.49,3.63-1.1,5.1-2.49,3.55-3.34,7.27-3.34a1.58,1.58,0,0,1,0,3.16h0c-2.46,0-3.63,1.1-5.1,2.48S67.12,25.07,63.4,25.07Z" transform="translate(0.04 0)"/></g></g></g></g><g id="Group_1732" data-name="Group 1732"><g id="Group_1731" data-name="Group 1731"><g id="Group_1730" data-name="Group 1730"><g id="Group_1729" data-name="Group 1729"><path id="Path_333" data-name="Path 333" class="cls-1" d="M63.4,9c-3.72,0-5.68-1.85-7.27-3.35S53.5,3.16,51,3.16s-3.62,1.1-5.1,2.48S42.39,9,38.67,9,33,7.14,31.4,5.64s-2.63-2.48-5.1-2.48-3.62,1.1-5.1,2.48S17.65,9,13.94,9,8.25,7.14,6.67,5.64,4,3.16,1.58,3.16A1.58,1.58,0,0,1,1.5,0h.08C5.29,0,7.26,1.85,8.84,3.35s2.63,2.48,5.1,2.48,3.62-1.1,5.1-2.48S22.58,0,26.3,0,32,1.85,33.57,3.35s2.63,2.48,5.1,2.48,3.62-1.1,5.1-2.48S47.32,0,51,0s5.69,1.85,7.27,3.35,2.64,2.48,5.1,2.48S67,4.73,68.5,3.35,72.05,0,75.77,0a1.58,1.58,0,0,1,.08,3.16h-.08c-2.46,0-3.63,1.1-5.1,2.48S67.12,9,63.4,9Z" transform="translate(0.04 0)"/></g></g></g></g><g id="Group_1736" data-name="Group 1736"><g id="Group_1735" data-name="Group 1735"><g id="Group_1734" data-name="Group 1734"><g id="Group_1733" data-name="Group 1733"><path id="Path_334" data-name="Path 334" class="cls-1" d="M63.4,41.14c-3.72,0-5.68-1.85-7.27-3.35S53.5,35.31,51,35.31s-3.62,1.1-5.1,2.48-3.54,3.35-7.26,3.35S33,39.29,31.4,37.79s-2.63-2.48-5.1-2.48-3.62,1.1-5.1,2.48-3.55,3.35-7.26,3.35-5.69-1.85-7.27-3.35S4,35.31,1.58,35.31a1.58,1.58,0,1,1,0-3.16c3.71,0,5.68,1.86,7.26,3.35S11.47,38,13.94,38s3.62-1.1,5.1-2.48,3.54-3.35,7.26-3.35S32,34,33.57,35.5,36.2,38,38.67,38s3.62-1.1,5.1-2.48,3.55-3.35,7.26-3.35S56.72,34,58.3,35.49,60.94,38,63.4,38s3.63-1.1,5.1-2.48,3.55-3.35,7.27-3.35a1.58,1.58,0,1,1,0,3.16c-2.46,0-3.63,1.1-5.1,2.48S67.12,41.14,63.4,41.14Z" transform="translate(0.04 0)"/></g></g></g></g></g></svg>