<svg id="Layer_1" data-name="Layer 1" xmlns="http://www.w3.org/2000/svg" viewBox="0 0 57 57"><defs><style>.cls-1{fill:#ccc5b9;}</style></defs><g id="Layer_76" data-name="Layer 76"><path class="cls-1" d="M30,3.5H27a.5.5,0,0,0-.5.5V30H11l6.83-6.84a.49.49,0,0,0,0-.68l0,0-2.12-2.12a.49.49,0,0,0-.68,0l0,0L3.65,31.65a.49.49,0,0,0,0,.68l0,0L15,43.66a.49.49,0,0,0,.68,0l0,0,2.12-2.12a.49.49,0,0,0,0-.68l0,0L11,34H26.5V60a.5.5,0,0,0,.5.5h3a.5.5,0,0,0,.5-.5V4A.5.5,0,0,0,30,3.5Z" transform="translate(-3.5 -3.5)"/><path class="cls-1" d="M60.35,31.65,49,20.34a.49.49,0,0,0-.68,0l0,0-2.12,2.12a.49.49,0,0,0,0,.68l0,0L53.05,30H37.5V4a.5.5,0,0,0-.5-.5H34a.5.5,0,0,0-.5.5V60a.5.5,0,0,0,.5.5h3a.5.5,0,0,0,.5-.5V34H53.05l-6.83,6.84a.49.49,0,0,0,0,.68l0,0,2.12,2.12a.49.49,0,0,0,.68,0l0,0L60.35,32.35a.49.49,0,0,0,0-.68Z" transform="translate(-3.5 -3.5)"/></g></svg>