<svg xmlns="http://www.w3.org/2000/svg" version="1.1" xmlns:xlink="http://www.w3.org/1999/xlink" xmlns:svgjs="http://svgjs.dev/svgjs" viewBox="0 0 1920 1080" class="overflow-hidden rounded-md drop-shadow-lg transition duration-300" style="overflow: hidden; height: 85vh;"><rect width="1920" height="1080" fill="#9b6a6c"/><g clip-path="url(&quot;#SvgjsClipPath1052&quot;)"><g transform="matrix(1.005812663210305,0.5575310632832876,-0.5575310632832876,1.005812663210305,295.62074354607046,-525.5037397691322)"><path d="M0,-1080C-1.6183942180199011,-992.5303956063334,-19.799765107102402,-710.2876999019949,-9.710365308119407,-555.1823736380002C0.37903449086358876,-400.0770473740055,51.25296126917605,-303.23316445049545,60.53639879389797,-149.36804241603176C69.81983631861989,4.497079618431911,59.70246625151544,214.8608728258723,45.99025984021213,368.0083585687819C32.27805342890883,521.1558443116915,-22.283074111742618,633.8511862033326,-21.73683967392185,769.5168720414258C-21.19060523610108,905.182557879519,53.17307128643791,1028.457959092072,49.267666467136735,1182.002473597341C45.36226164783556,1335.5469881026097,-36.957990845206126,1527.7843713392629,-45.169268589728915,1690.7839590730393C-53.380546334251704,1853.7835468068158,-7.528211431621486,2081.797326512173,0,2160L 1920 2160 L 1920 -1080 Z" fill="url(&quot;#SvgjsLinearGradient1048&quot;)"/><path d="M480,-1080C469.5500267652281,-966.0646441044098,419.57391692563084,-616.9474300635144,417.3001605913687,-396.38786462645874C415.02640425710655,-175.82829918940308,460.1845893358524,40.05486696918325,466.35746199442724,243.3573926223339C472.53033465300206,446.65991827548453,461.42401356793687,620.1268967249861,454.3373965428177,823.4272892924452C447.25077951769856,1026.7276818599041,419.5606592675153,1240.3976295758291,423.8377598437123,1463.1597480270882C428.11486041990935,1685.9218664783473,470.6396266406187,2043.8599580045147,480,2160L 1920 2160 L 1920 -1080 Z" fill="url(&quot;#SvgjsLinearGradient1049&quot;)"/><path d="M960,-1080C966.6088783329899,-987.7836781433745,994.2785736869502,-704.5665485283786,999.6532699979394,-526.7020688602469C1005.0279663089287,-348.83758919211516,1001.817464783705,-186.64126276257673,992.2481778659358,-12.813121991209897C982.6788909481666,161.01501878015694,945.6381959170574,328.1672687148109,942.2375484913242,516.2667757679541C938.8369010655911,704.3662828210972,958.3289589816553,929.6709233702454,971.8442933115371,1115.7839203276492C985.3596276414188,1301.896917285053,1025.3036033558708,1458.9087442336513,1023.3295544706145,1632.9447575123766C1021.3555055853584,1806.9807707911018,970.5549257451024,2072.1574595853963,960,2160L 1920 2160 L 1920 -1080 Z" fill="url(&quot;#SvgjsLinearGradient1050&quot;)"/><path d="M1440,-1080C1433.3199691014318,-977.158617301337,1402.391763713108,-669.6264606562115,1399.9198146085903,-462.95170380802193C1397.4478655040725,-256.2769469598323,1423.0125073786253,-54.48129308401724,1425.1683053728932,160.04854108913787C1427.3241033671611,374.578375262293,1403.4522064185514,598.2464301479281,1412.8546025741973,824.2273012309088C1422.2569987298432,1050.2081723138895,1477.0584494024679,1293.30498445884,1481.5826823067682,1515.9337675870217C1486.1069152110686,1738.5625507152035,1446.930447051128,2052.6556279311703,1440,2160L 1920 2160 L 1920 -1080 Z" fill="url(&quot;#SvgjsLinearGradient1051&quot;)"/></g></g><defs><linearGradient x1="0.1" y1="0" x2="0" y2="1" id="SvgjsLinearGradient1048"><stop stop-color="#9b6a6c" offset="0"/><stop stop-color="#9b6a74" offset="0"/></linearGradient><linearGradient x1="0.1" y1="0" x2="0" y2="1" id="SvgjsLinearGradient1049"><stop stop-color="#b69294" offset="0"/><stop stop-color="#b6929a" offset="0.25"/></linearGradient><linearGradient x1="0.1" y1="0" x2="0" y2="1" id="SvgjsLinearGradient1050"><stop stop-color="#d1babb" offset="0"/><stop stop-color="#d1babf" offset="0.5"/></linearGradient><linearGradient x1="0.1" y1="0" x2="0" y2="1" id="SvgjsLinearGradient1051"><stop stop-color="#ece2e3" offset="0"/><stop stop-color="#ece2e5" offset="0.75"/></linearGradient><clipPath id="SvgjsClipPath1052"><rect width="1920" height="1080"/></clipPath></defs></svg>